<?xml version="1.0" encoding="UTF-8"?>
<svg width="200px" height="200px" viewBox="0 0 200 200" version="1.1" xmlns="http://www.w3.org/2000/svg" xmlns:xlink="http://www.w3.org/1999/xlink">
    <!-- Generator: Sketch 52.6 (67491) - http://www.bohemiancoding.com/sketch -->
    <title>Untitled</title>
    <desc>Created with Sketch.</desc>
    <g id="Page-1" stroke="none" stroke-width="1" fill="none" fill-rule="evenodd">
        <path d="M100,200 C44.771525,200 0,155.228475 0,100 C0,44.771525 44.771525,0 100,0 C155.228475,0 200,44.771525 200,100 C200,155.228475 155.228475,200 100,200 Z M39.1777344,102.077637 C39.1777344,112.885308 41.9325896,121.392059 47.4423828,127.598145 C52.952176,133.773957 60.5204597,136.861816 70.1474609,136.861816 C77.9277733,136.861816 84.3078364,134.576195 89.2878418,130.004883 C94.2678472,125.433571 97.3632752,119.500036 98.5742188,112.204102 L84.7241211,112.204102 C83.7856398,115.655291 82.6049876,118.243644 81.1821289,119.969238 C78.6088739,123.178239 74.8701417,124.782715 69.9658203,124.782715 C65.1825933,124.782715 61.2395175,122.913349 58.1364746,119.174561 C55.0334318,115.435772 53.4819336,109.812538 53.4819336,102.304688 C53.4819336,94.7968375 54.9501806,88.9919639 57.8867188,84.8898926 C60.8232569,80.7878213 64.8344472,78.7368164 69.9204102,78.7368164 C74.9155523,78.7368164 78.6845576,80.1899269 81.2275391,83.0961914 C82.6503977,84.7309652 83.8159134,87.152816 84.7241211,90.3618164 L98.7104492,90.3618164 C98.4985341,86.1840611 96.9546042,82.0215051 94.0786133,77.8740234 C88.871556,70.4872678 80.6372633,66.7939453 69.3754883,66.7939453 C60.9594306,66.7939453 54.0268827,69.5488006 48.5776367,75.0585938 C42.3110038,81.3857738 39.1777344,90.3920314 39.1777344,102.077637 Z M148.43457,68.0654297 L133.76709,118.879395 L119.23584,68.0654297 L104.295898,68.0654297 L126.910156,135 L140.124512,135 L162.96582,68.0654297 L148.43457,68.0654297 Z" id="Combined-Shape" fill="#000000"></path>
    </g>
</svg>