<?xml version="1.0" encoding="UTF-8" standalone="no"?>
<svg
   xmlns:dc="http://purl.org/dc/elements/1.1/"
   xmlns:cc="http://creativecommons.org/ns#"
   xmlns:rdf="http://www.w3.org/1999/02/22-rdf-syntax-ns#"
   xmlns:svg="http://www.w3.org/2000/svg"
   xmlns="http://www.w3.org/2000/svg"
   xml:space="preserve"
   width="200"
   viewBox="0 0 200 200"
   version="1.1"
   id="Layer_1"
   height="200"><metadata
     id="metadata9"><rdf:RDF><cc:Work
         rdf:about=""><dc:format>image/svg+xml</dc:format><dc:type
           rdf:resource="http://purl.org/dc/dcmitype/StillImage" /><dc:title></dc:title></cc:Work></rdf:RDF></metadata><defs
     id="defs7" /><path
     id="path2"
     style="clip-rule:evenodd;fill:hsl(221, 49%, 53%);fill-rule:evenodd;stroke-width:3.33333349"
     d="m 58.476667,101.89333 c -0.18,0 1.973333,4.55667 2.033333,4.55667 4.7,8.38667 13.76,13.6 29.043333,15.04667 -2.18,1.62666 -4.8,4.71333 -5.163333,8.28 -2.743333,1.74333 -8.26,2.32 -12.546667,0.99 -6.01,-1.86334 -8.31,-13.55334 -17.306666,-11.88667 -1.946667,0.35667 -1.56,1.62 0.123333,2.69667 2.743333,1.74333 5.323333,3.92666 7.313333,8.57 1.53,3.56666 4.743334,9.93666 14.91,9.93666 4.033334,0 6.86,-0.47666 6.86,-0.47666 0,0 0.07667,9.10333 0.07667,12.64333 0,4.08333 -5.606667,5.23333 -5.606667,7.19667 0,0.77666 1.856667,0.85 3.346667,0.85 2.946667,0 9.076667,-2.41667 9.076667,-6.66 0,-3.37 0.05667,-14.7 0.05667,-16.68667 0,-4.33333 2.363334,-5.70667 2.363334,-5.70667 0,0 0.293333,23.13334 -0.563334,26.24 -1.006673,3.64667 -2.82334,3.13 -2.82334,4.75667 0,2.42 7.38,0.59667 9.826667,-4.72 1.890003,-4.13 1.063333,-26.83333 1.063333,-26.83333 l 2.01667,-0.04 c 0,0 0.11333,10.39 0.0433,15.14 -0.07,4.92 -0.41,11.14 2.56333,14.07333 1.95334,1.93 8.28,5.31333 8.28,2.22 0,-1.79667 -3.46666,-3.27333 -3.46666,-8.13667 V 131.56 c 2.77,0 2.35333,7.36 2.35333,7.36 l 0.20333,13.67667 c 0,0 -0.61333,4.98 5.48334,7.06333 2.15,0.74333 6.75,0.94333 6.96666,-0.3 0.21667,-1.24333 -5.54,-3.09333 -5.59333,-6.94667 -0.0333,-2.35666 0.10667,-3.73 0.10667,-13.95666 0,-10.22667 -1.39667,-14.00667 -6.26667,-17.02 15.02667,-1.51667 24.33,-5.17 28.86,-14.95334 0.35333,0.01 1.85,-4.57 1.65333,-4.57 C 144.77997,98.22 145.32997,93.85 145.43664,88.676667 145.40994,74.643333 138.57664,69.68 137.26664,67.35 139.2,56.726667 136.94,51.893333 135.89333,50.233333 c -3.87333,-1.353333 -13.47,3.483334 -18.71666,6.89 -8.54667,-2.456666 -26.620003,-2.22 -33.39667,0.633334 -12.503333,-8.796667 -19.12,-7.45 -19.12,-7.45 0,0 -4.276667,7.53 -1.13,18.55 -4.113333,5.153333 -7.18,8.8 -7.18,18.463333 0.0033,5.446667 0.656667,10.32 2.126667,14.57333 z M 100,200 C 44.773333,200 0,155.22667 0,100 0,44.77 44.773333,0 100,0 c 55.22667,0 100,44.77 100,100 0,55.22667 -44.77333,100 -100,100 z" /></svg>