<?xml version="1.0" encoding="UTF-8" standalone="no"?>
<svg
   xmlns:dc="http://purl.org/dc/elements/1.1/"
   xmlns:cc="http://creativecommons.org/ns#"
   xmlns:rdf="http://www.w3.org/1999/02/22-rdf-syntax-ns#"
   xmlns:svg="http://www.w3.org/2000/svg"
   xmlns="http://www.w3.org/2000/svg"
   xml:space="preserve"
   width="200"
   viewBox="0 0 200 200"
   version="1.1"
   id="Layer_1"
   height="200"><metadata
     id="metadata9"><rdf:RDF><cc:Work
         rdf:about=""><dc:format>image/svg+xml</dc:format><dc:type
           rdf:resource="http://purl.org/dc/dcmitype/StillImage" /><dc:title></dc:title></cc:Work></rdf:RDF></metadata><defs
     id="defs7" /><path
     id="path2"
     style="clip-rule:evenodd;fill:#010101;fill-rule:evenodd;stroke-width:3.33333349"
     d="m 156.12333,147.12333 v -39.04 c 0,-20.916663 -11.16666,-30.649997 -26.05333,-30.649997 -12.01333,0 -17.39667,6.61 -20.39667,11.246667 V 79.033333 H 87.04 c 0.3,6.39 0,68.089997 0,68.089997 h 22.63333 v -38.02666 c 0,-2.03 0.14667,-4.06334 0.74667,-5.51667 1.63333,-4.066667 5.35667,-8.276667 11.60667,-8.276667 8.19333,0 11.46666,6.243337 11.46666,15.393337 v 36.43 h 22.63 z M 63.196667,69.74 c 7.89,0 12.806666,-5.233333 12.806666,-11.77 -0.146666,-6.676667 -4.916666,-11.76 -12.656666,-11.76 -7.74,0 -12.803334,5.08 -12.803334,11.76 0,6.536667 4.913334,11.77 12.51,11.77 z M 100,200 C 44.773333,200 0,155.22667 0,100 0,44.77 44.773333,0 100,0 c 55.22667,0 100,44.77 100,100 0,55.22667 -44.77333,100 -100,100 z M 74.513333,147.12333 V 79.033333 h -22.63 v 68.089997 z" /></svg>