<?xml version="1.0" encoding="UTF-8" standalone="no"?>
<svg
   xmlns:dc="http://purl.org/dc/elements/1.1/"
   xmlns:cc="http://creativecommons.org/ns#"
   xmlns:rdf="http://www.w3.org/1999/02/22-rdf-syntax-ns#"
   xmlns:svg="http://www.w3.org/2000/svg"
   xmlns="http://www.w3.org/2000/svg"
   height="200"
   width="200"
   id="svg44"
   xml:space="preserve"
   enable-background="new 0 0 1000 1000"
   viewBox="0 0 200 200"
   y="0px"
   x="0px"
   version="1.1"><defs
     id="defs48" /><metadata
     id="metadata2"> Svg Vector Icons : http://www.onlinewebfonts.com/icon <rdf:RDF><cc:Work
     rdf:about=""><dc:format>image/svg+xml</dc:format><dc:type
       rdf:resource="http://purl.org/dc/dcmitype/StillImage" /><dc:title></dc:title></cc:Work></rdf:RDF></metadata><g
     transform="matrix(0,0.20407122,-0.20405561,0,202.03036,-2.0305)"
     id="g42"><g
       id="g10"><g
         id="g8"><g
           id="g6"><path
             id="path4"
             d="m 846.6,153.5 c -191.5,-191.4 -501.7,-191.4 -693.1,0 -191.4,191.4 -191.4,501.7 0,693.1 191.4,191.3 501.7,191.3 693.1,0 191.2,-191.5 191.2,-501.8 0,-693.1 z M 742.9,742.8 c -12.7,12.7 -33.5,12.7 -46.1,0 l -360.1,-360 v 198.4 c 0,18 -14.6,32.7 -32.7,32.7 -18.1,0 -32.7,-14.6 -32.7,-32.7 V 303.9 l 2.6,-12.5 6.8,-10.3 0.3,-0.4 0.1,-0.1 10.3,-6.9 12.6,-2.5 h 277.3 c 18,0 32.7,14.6 32.7,32.7 0,18.1 -14.7,32.7 -32.7,32.7 H 382.9 l 360,360 c 12.8,12.8 12.8,33.4 0,46.2 z" /></g></g></g><g
       id="g12" /><g
       id="g14" /><g
       id="g16" /><g
       id="g18" /><g
       id="g20" /><g
       id="g22" /><g
       id="g24" /><g
       id="g26" /><g
       id="g28" /><g
       id="g30" /><g
       id="g32" /><g
       id="g34" /><g
       id="g36" /><g
       id="g38" /><g
       id="g40" /></g></svg>